<svg width="29" height="28" viewBox="0 0 29 28" fill="none" xmlns="http://www.w3.org/2000/svg">
<path d="M28.0177 2.55822V24.9934C28.0177 26.4103 26.8369 27.5518 25.3937 27.5518H9.87281C8.42955 27.5518 7.24875 26.3973 7.24875 24.9934V22.6188C7.24875 21.8972 7.83904 21.3069 8.56064 21.3069C9.28224 21.3069 9.87252 21.8972 9.87252 22.6188V24.9934L25.3934 24.9278L25.3936 2.55816L9.88563 2.62382V4.93306C9.88563 5.65466 9.29535 6.24494 8.57375 6.24494C7.85215 6.24494 7.26187 5.65466 7.26187 4.93306V2.5584C7.26187 1.1415 8.44267 0 9.88593 0H25.3939C26.8371 0 28.0179 1.1545 28.0179 2.5584L28.0177 2.55822ZM10.0304 17.3703C9.5582 17.9213 9.61059 18.7479 10.1615 19.2204C10.4109 19.4435 10.7125 19.5485 11.0275 19.5485C11.3949 19.5485 11.7622 19.3911 12.0116 19.1023L15.8951 14.6545C16.328 14.156 16.328 13.4213 15.8951 12.9358L12.0116 8.48802C11.5393 7.93708 10.7127 7.88444 10.1615 8.35692C9.61059 8.82915 9.55795 9.6558 10.0304 10.207L12.0115 12.4899L1.77795 12.4897C1.05635 12.4897 0.466064 13.0799 0.466064 13.8015C0.466064 14.5231 1.05635 15.1134 1.77795 15.1134H12.0115L10.0304 17.3964V17.3703Z" fill="white"/>
</svg>
