<svg width="27" height="24" viewBox="0 0 27 24" fill="none" xmlns="http://www.w3.org/2000/svg">
<path opacity="0.8" d="M0.889465 0C0.398314 0 0 0.399815 0 0.892853C0 1.38588 0.398091 1.78571 0.889465 1.78571H3.72452L6.78187 16.2661C6.90285 16.8112 7.25876 17.2648 7.70834 17.2613H22.5319C23.0017 17.2679 23.4339 16.8403 23.4339 16.3684C23.4339 15.8968 23.0017 15.4689 22.5319 15.4756H8.43099L8.0511 13.6899H23.718C24.1163 13.687 24.4925 13.3824 24.5795 12.9924L26.6547 4.06437C26.7703 3.54622 26.3222 2.98015 25.7932 2.97616H5.79998L5.31813 0.707013C5.23397 0.310519 4.85097 -0.000265802 4.4473 0.000159341L0.889465 0ZM6.17035 4.76171H11.5624V7.44H6.73544L6.17035 4.76171ZM13.3412 4.76171H17.4917V7.44H13.3412V4.76171ZM19.2706 4.76171H24.6717L24.0509 7.44H19.2702L19.2706 4.76171ZM7.11535 9.22571H11.5624V11.904H7.68055L7.11535 9.22571ZM13.3412 9.22571H17.4917V11.904H13.3412V9.22571ZM19.2706 9.22571H23.6344L23.0135 11.904H19.2706V9.22571ZM10.673 17.8561C9.04611 17.8561 7.70829 19.199 7.70829 20.8321C7.70829 22.4652 9.04611 23.8081 10.673 23.8081C12.2999 23.8081 13.6377 22.4652 13.6377 20.8321C13.6377 19.199 12.2999 17.8561 10.673 17.8561ZM19.5671 17.8561C17.9402 17.8561 16.6024 19.199 16.6024 20.8321C16.6024 22.4652 17.9402 23.8081 19.5671 23.8081C21.194 23.8081 22.5318 22.4652 22.5318 20.8321C22.5318 19.199 21.194 17.8561 19.5671 17.8561ZM10.673 19.6418C11.3385 19.6418 11.8588 20.1641 11.8588 20.8321C11.8588 21.5001 11.3385 22.0224 10.673 22.0224C10.0075 22.0224 9.48722 21.4999 9.48722 20.8321C9.48722 20.1641 10.0077 19.6418 10.673 19.6418ZM19.5671 19.6418C20.2326 19.6418 20.7529 20.1641 20.7529 20.8321C20.7529 21.5001 20.2326 22.0224 19.5671 22.0224C18.9016 22.0224 18.3813 21.4999 18.3813 20.8321C18.3813 20.1641 18.9019 19.6418 19.5671 19.6418Z" fill="#122045"/>
</svg>
