<svg width="34" height="9" viewBox="0 0 34 9" fill="none" xmlns="http://www.w3.org/2000/svg">
<path d="M4.31309 8.36C6.57414 8.36 8.46603 6.61492 8.46603 4.42237C8.46603 2.22983 6.57414 0.440002 4.31309 0.440002C2.00591 0.440002 0.160156 2.22983 0.160156 4.42237C0.160156 6.61492 2.00591 8.36 4.31309 8.36Z" fill="#000D34"/>
<path d="M16.6602 8.36C18.9212 8.36 20.8131 6.61492 20.8131 4.42237C20.8131 2.22983 18.9212 0.440002 16.6602 0.440002C14.353 0.440002 12.5072 2.22983 12.5072 4.42237C12.5072 6.61492 14.353 8.36 16.6602 8.36Z" fill="#000D34"/>
<path d="M29.0072 8.36C31.2683 8.36 33.1602 6.61492 33.1602 4.42237C33.1602 2.22983 31.2683 0.440002 29.0072 0.440002C26.7 0.440002 24.8543 2.22983 24.8543 4.42237C24.8543 6.61492 26.7 8.36 29.0072 8.36Z" fill="#000D34"/>
</svg>
