<svg width="68" height="46" viewBox="0 0 68 46" fill="none" xmlns="http://www.w3.org/2000/svg">
<g clip-path="url(#clip0_453_2574)">
<path d="M47.0934 4.25281V7.20153C47.0941 7.39734 47.017 7.58493 46.8789 7.72348C46.7412 7.86202 46.5539 7.93936 46.3588 7.93871H20.646C20.4509 7.93937 20.2636 7.86203 20.1259 7.72348C19.9878 7.58493 19.9107 7.39734 19.9114 7.20153V4.25281C19.9127 3.84604 20.2407 3.51661 20.646 3.51562H46.3588C46.7641 3.51661 47.0921 3.84604 47.0934 4.25281Z" fill="#0084F4"/>
<path d="M42.6427 30.544C42.6374 30.544 42.6328 30.5414 42.6276 30.541H24.1732C24.3441 30.9247 24.7163 31.1785 25.1344 31.1962H41.8358C42.2434 31.1939 42.617 30.9688 42.8108 30.6091C42.8236 30.5868 42.8351 30.5641 42.8465 30.541H42.7081C42.6858 30.543 42.6645 30.544 42.6429 30.544L42.6427 30.544Z" fill="#0084F4"/>
<path d="M47.2982 12.6346L46.211 9.41309H20.7922L19.705 12.6346C19.5968 12.9472 19.542 13.2763 19.5433 13.6074V40.9791C19.541 41.3734 19.6939 41.7528 19.969 42.0345C20.2445 42.3162 20.6194 42.4775 21.0126 42.4828H45.9907C46.3839 42.4775 46.7588 42.3162 47.0343 42.0345C47.3095 41.7528 47.4623 41.3734 47.46 40.9791V13.6074C47.4613 13.2764 47.4066 12.9473 47.2983 12.6346H47.2982ZM44.0897 31.3329C43.8657 31.736 43.5387 32.0723 43.1426 32.3076C42.7464 32.5426 42.2951 32.668 41.835 32.6706H25.1337C24.4213 32.6367 23.75 32.3247 23.2633 31.8015C22.7766 31.2782 22.5126 30.5849 22.528 29.869C22.5251 29.6636 22.6005 29.4649 22.7389 29.3138C22.8743 29.1657 23.0623 29.0772 23.262 29.0667H23.7212C24.115 26.8995 25.2187 24.926 26.8575 23.4598C28.496 21.9937 30.5756 21.1186 32.7665 20.9734V19.9621C32.7665 19.555 33.0954 19.2249 33.5011 19.2249C33.9068 19.2249 34.2358 19.555 34.2358 19.9621V20.9731C36.4266 21.1182 38.5066 21.9933 40.1451 23.4595C41.784 24.9256 42.8876 26.8992 43.2809 29.0667H43.7404C43.9352 29.0667 44.1221 29.1443 44.2599 29.2826C44.3976 29.4208 44.475 29.6084 44.475 29.8038C44.4809 30.3386 44.3484 30.8652 44.0896 31.3328L44.0897 31.3329Z" fill="#0084F4"/>
<path d="M33.5019 22.4124C31.5679 22.3969 29.6876 23.0499 28.177 24.2616C26.6663 25.4733 25.6175 27.1698 25.2069 29.066H41.7966C41.3863 27.1698 40.3374 25.4726 38.8268 24.2609C37.3162 23.0491 35.4356 22.3966 33.5015 22.4124H33.5019Z" fill="#0084F4"/>
</g>
<defs>
<clipPath id="clip0_453_2574">
<rect width="67" height="46" fill="white" transform="translate(0.589111)"/>
</clipPath>
</defs>
</svg>
