<svg width="37" height="37" viewBox="0 0 37 37" fill="none" xmlns="http://www.w3.org/2000/svg">
<path d="M24.1374 7.56438H28.3921C28.4504 7.56438 28.5088 7.56789 28.5671 7.56438C28.7275 7.55735 28.3957 7.53977 28.5452 7.56438C28.6838 7.58547 28.4249 7.50813 28.5051 7.55032C28.5853 7.59602 28.3811 7.42024 28.4759 7.52571C28.4723 7.52219 28.5306 7.58547 28.5343 7.58547C28.516 7.56086 28.4942 7.53625 28.4759 7.51165C28.4942 7.53626 28.5088 7.56087 28.5233 7.58547C28.5306 7.59602 28.5707 7.66282 28.5671 7.66633C28.527 7.57141 28.5197 7.55735 28.5452 7.63118C28.5489 7.64524 28.5562 7.66282 28.5598 7.67688C28.5671 7.70852 28.6035 7.7929 28.5926 7.82454C28.5926 7.82102 28.5817 7.64875 28.5853 7.7929C28.5853 7.82805 28.589 7.86672 28.589 7.89836V7.90891V7.97219V8.74214V12.2472V17.3906V22.9769V27.8495V30.8413C28.589 31.0136 28.5853 31.1894 28.5853 31.3651C28.5853 31.4741 28.6035 31.3441 28.5926 31.33C28.6035 31.3476 28.5707 31.4284 28.5671 31.4495C28.5634 31.4601 28.5343 31.562 28.5306 31.562C28.4978 31.5515 28.6072 31.4249 28.5489 31.5163C28.5416 31.5304 28.5343 31.5409 28.527 31.555C28.4832 31.6183 28.4978 31.6042 28.5671 31.5163C28.5562 31.5198 28.5124 31.5726 28.5088 31.5761C28.4176 31.6816 28.6181 31.4987 28.5452 31.5515C28.4067 31.6429 28.6801 31.5128 28.5525 31.5515C28.4249 31.5866 28.7239 31.555 28.5744 31.548H28.5525C28.4723 31.5444 28.3884 31.548 28.3082 31.548H25.1728H19.8718H14.1223H9.6525H8.42024H8.15044H8.11398C7.99732 31.555 8.1395 31.5233 8.17596 31.562C8.17232 31.555 8.08846 31.5409 8.08846 31.5409C7.95357 31.5163 8.17232 31.6077 8.11398 31.555C8.10669 31.548 8.00826 31.5058 8.0119 31.4987C8.02284 31.4776 8.12492 31.6042 8.04836 31.5233C8.03013 31.5058 7.94992 31.446 7.94992 31.4214C7.94992 31.4144 8.04107 31.5726 7.97909 31.446C7.96086 31.4179 7.94628 31.3898 7.93169 31.3616C7.94263 31.3862 7.95357 31.4144 7.9645 31.439C7.95357 31.4319 7.91346 31.3019 7.92075 31.2948C7.9244 31.2913 7.92805 31.4776 7.9244 31.3265V31.2737V31.2597V31.1929V30.8976V29.755V25.7191V20.3472V14.8172V10.3207V8.00748V7.93365V7.91607V7.91256V7.85982C7.93169 7.77897 7.92805 7.78951 7.92075 7.89147C7.91346 7.88443 7.94628 7.78951 7.94628 7.78951C7.98638 7.63131 7.89159 7.87389 7.94263 7.78951C7.9645 7.75436 7.98638 7.71569 8.00461 7.68053C8.07388 7.55748 7.98273 7.70163 7.98273 7.70163C7.99003 7.66998 8.06659 7.61725 8.08846 7.59616C8.16867 7.5153 8.05929 7.63483 8.05565 7.61725C8.052 7.60319 8.14679 7.56803 8.15773 7.55749C8.20877 7.53288 8.1869 7.54342 8.08846 7.58561C8.11762 7.57506 8.14679 7.56803 8.17596 7.561C8.16866 7.57506 7.98637 7.56803 8.11762 7.57155H8.13585H8.23793H10.6041H12.3723C12.7551 7.57155 13.1197 7.24811 13.1015 6.86839C13.0832 6.48871 12.7806 6.16523 12.3723 6.16523C10.9723 6.16523 9.57593 6.1582 8.17593 6.16523C7.15873 6.16875 6.46606 7.04415 6.46606 7.97931V8.75627V12.3176V17.5453V23.2125V28.1062V30.9714C6.46606 31.4003 6.48794 31.8152 6.74679 32.1984C7.06033 32.6624 7.56712 32.9507 8.14312 32.9613H8.40198H11.6322H17.039H22.8541H27.2692H28.3812H28.5745C29.4422 32.9402 29.9489 32.2616 30.0401 31.4847C30.0619 31.2843 30.0547 31.0769 30.0547 30.8765V29.6847V25.5397V20.0694V14.4831V10.0288C30.0547 9.33626 30.0583 8.64011 30.0547 7.94756C30.0547 7.54678 29.9672 7.11082 29.7156 6.77686C29.4385 6.40771 29.0593 6.18623 28.5781 6.16865C28.5161 6.16514 28.4542 6.16865 28.3958 6.16865H25.913H24.1484C23.7656 6.16865 23.401 6.49209 23.4192 6.87181C23.4265 7.24095 23.7291 7.56436 24.1374 7.56436L24.1374 7.56438Z" fill="#153B6F"/>
<path d="M25.3408 13.7162H23.9299H20.5429H16.445H12.9012C12.3288 13.7162 11.7528 13.7021 11.1804 13.7162H11.1549C10.7721 13.7162 10.4075 14.0396 10.4257 14.4194C10.4439 14.799 10.7465 15.1225 11.1549 15.1225H12.5658H15.9528H20.0508H23.5945C24.1669 15.1225 24.743 15.1366 25.3153 15.1225H25.3408C25.7237 15.1225 26.0882 14.7991 26.07 14.4194C26.0518 14.0362 25.7492 13.7162 25.3408 13.7162Z" fill="#153B6F"/>
<path d="M25.3408 19.6225H23.9299H20.5429H16.445H12.9012C12.3288 19.6225 11.7528 19.6084 11.1804 19.6225H11.1549C10.7721 19.6225 10.4075 19.9459 10.4257 20.3256C10.4439 20.7053 10.7465 21.0288 11.1549 21.0288H12.5658H15.9528H20.0508H23.5945C24.1669 21.0288 24.743 21.0428 25.3153 21.0288H25.3408C25.7237 21.0288 26.0882 20.7053 26.07 20.3256C26.0518 19.9424 25.7492 19.6225 25.3408 19.6225Z" fill="#153B6F"/>
<path d="M18.3774 25.5293H15.9347H12.0592H11.1623C10.7795 25.5293 10.4149 25.8527 10.4331 26.2325C10.4513 26.6121 10.7539 26.9356 11.1623 26.9356H13.605H17.4805H18.3774C18.7602 26.9356 19.1248 26.6122 19.1066 26.2325C19.0884 25.8493 18.7858 25.5293 18.3774 25.5293Z" fill="#153B6F"/>
<path d="M23.1568 4.35767H21.3995H17.6698H14.2792H13.4333C12.6385 4.35767 11.8948 4.81822 11.6906 5.58816C11.625 5.83425 11.6323 6.08386 11.6323 6.33696V7.22995C11.6323 7.42683 11.6286 7.62722 11.6323 7.8241C11.6432 8.40066 11.9422 8.92801 12.4489 9.23735C12.8135 9.45884 13.2182 9.48344 13.6302 9.48344H14.7349H18.3479H21.9062H22.9416C23.4666 9.48344 23.9588 9.38149 24.3562 9.01587C24.7062 8.69243 24.8739 8.24592 24.8776 7.78538V7.06467C24.8776 6.46701 24.9687 5.77793 24.6698 5.2295C24.3708 4.6881 23.7766 4.37521 23.1568 4.35766C22.7739 4.34711 22.4094 4.68813 22.4276 5.06082C22.4458 5.45105 22.7484 5.75337 23.1568 5.76397C23.1823 5.76397 23.2078 5.76749 23.2333 5.76749C23.3135 5.76749 23.1677 5.76397 23.1604 5.75694C23.164 5.76046 23.3719 5.84835 23.2588 5.77804C23.164 5.72179 23.2917 5.80616 23.3208 5.81671C23.401 5.84483 23.2552 5.78507 23.2698 5.77452C23.2734 5.77101 23.3354 5.83077 23.339 5.83429C23.3536 5.84835 23.3682 5.86944 23.3864 5.88351C23.4484 5.93624 23.3354 5.8378 23.3463 5.83077C23.3427 5.83429 23.4703 6.0171 23.401 5.90811C23.3463 5.82374 23.4047 5.9503 23.4156 5.97843C23.4484 6.0382 23.4047 5.9257 23.4083 5.90811C23.401 5.93272 23.412 5.97843 23.412 6.00655C23.4156 6.16475 23.412 6.31944 23.412 6.47764C23.412 6.93467 23.4265 7.39172 23.412 7.84873C23.412 7.86982 23.401 7.90146 23.4083 7.92255C23.4047 7.90497 23.4448 7.79248 23.4156 7.85224C23.401 7.88036 23.3427 8.00692 23.401 7.92255C23.4594 7.83114 23.3719 7.95419 23.3609 7.98232C23.3318 8.05966 23.3937 7.91552 23.4047 7.9331C23.4083 7.94013 23.3281 8.01044 23.3245 8.01747C23.3208 8.02099 23.2734 8.06318 23.2698 8.06318C23.2552 8.05263 23.401 7.99286 23.3208 8.02099C23.2953 8.03154 23.1677 8.11591 23.2588 8.05966C23.3463 8.00693 23.2151 8.06318 23.1859 8.07372C23.1239 8.10536 23.2406 8.06318 23.2588 8.06669C23.237 8.05966 23.1859 8.07021 23.1568 8.07021H23.0364H22.1906H18.9421H15.3364C14.6838 8.07021 14.0275 8.07372 13.3749 8.07021H13.3202C13.2983 8.07021 13.2655 8.05966 13.2437 8.06669C13.2619 8.06318 13.3785 8.10185 13.3166 8.07372C13.2874 8.05966 13.1562 8.00341 13.2437 8.05966C13.3384 8.11591 13.2108 8.03154 13.1817 8.02099C13.1015 7.99286 13.2509 8.05263 13.2327 8.06318C13.2254 8.06669 13.1562 7.99286 13.1452 7.98583C13.1416 7.98232 13.0978 7.93662 13.0978 7.9331C13.1088 7.91904 13.1707 8.05967 13.1416 7.98232C13.1306 7.95771 13.0431 7.83466 13.1015 7.92255C13.1562 8.00693 13.0978 7.88037 13.0869 7.85224C13.0541 7.79247 13.0978 7.90497 13.0942 7.92255C13.1015 7.90146 13.0905 7.85224 13.0905 7.82412V7.67998V6.13313V5.98196C13.0905 5.96087 13.1015 5.92923 13.0942 5.90813C13.1015 5.93274 13.0541 6.02767 13.0869 5.97845C13.0978 5.96439 13.1015 5.92572 13.1051 5.91165C13.1379 5.77806 13.0978 5.95735 13.0832 5.95032C13.0796 5.95032 13.1489 5.83079 13.1562 5.83079C13.1671 5.83431 13.0541 5.93274 13.1161 5.88352C13.1379 5.86595 13.1598 5.83782 13.1817 5.81673C13.1853 5.81321 13.2327 5.77102 13.2364 5.77102C13.2582 5.78508 13.1015 5.8343 13.1853 5.81321C13.2036 5.80969 13.2327 5.7886 13.2473 5.77805C13.3676 5.70071 13.2072 5.80618 13.2036 5.79212C13.2036 5.77805 13.3348 5.76399 13.3421 5.75344C13.3384 5.75696 13.189 5.76047 13.2692 5.76399C13.2947 5.76399 13.3202 5.76047 13.3457 5.76047H13.3785H14.0457H17.0973H20.765H23.0473H23.1603C23.5431 5.76047 23.9077 5.43704 23.8895 5.05732C23.8676 4.68114 23.565 4.3577 23.1567 4.3577L23.1568 4.35767Z" fill="#153B6F"/>
</svg>
