<svg width="27" height="20" viewBox="0 0 27 20" fill="none" xmlns="http://www.w3.org/2000/svg">
<path d="M0.593994 19.1098V7.06165C0.593994 3.33565 3.77031 0.303711 7.67374 0.303711H19.3083C23.2126 0.303711 26.3898 3.33565 26.3898 7.06165V9.13976C26.3898 12.8658 23.2135 15.8977 19.31 15.8977H7.83787L0.593994 19.1098ZM7.67374 1.81035C4.64029 1.81035 2.17237 4.16608 2.17237 7.06165V16.7484L7.49005 14.3903H19.31C22.3435 14.3903 24.8114 12.0345 24.8114 9.13895V7.06083C24.8114 4.16527 22.3426 1.80953 19.3083 1.80953H7.67374V1.81035ZM8.19419 6.94719C9.02335 6.94719 9.69518 7.58848 9.69518 8.37995C9.69518 9.17142 9.02335 9.81272 8.19419 9.81272C7.36503 9.81272 6.6932 9.17142 6.6932 8.37995C6.6932 7.58848 7.36503 6.94719 8.19419 6.94719ZM18.7887 6.94719C19.6179 6.94719 20.2897 7.58848 20.2897 8.37995C20.2897 9.17142 19.6179 9.81272 18.7887 9.81272C17.9596 9.81272 17.2877 9.17142 17.2877 8.37995C17.2877 7.58848 17.9596 6.94719 18.7887 6.94719ZM13.4906 6.94719C14.3198 6.94719 14.9916 7.58848 14.9916 8.37995C14.9916 9.17142 14.3198 9.81272 13.4906 9.81272C12.6614 9.81272 11.9896 9.17142 11.9896 8.37995C11.9896 7.58848 12.6614 6.94719 13.4906 6.94719Z" fill="#ECEEF2"/>
</svg>
