<svg width="66" height="32" viewBox="0 0 66 32" fill="none" xmlns="http://www.w3.org/2000/svg">
<path d="M19.9905 22.6502C20.3599 22.3998 20.5555 22.0538 20.6472 21.4874C20.953 19.6004 21.6174 17.8878 22.5953 16.4668C23.0696 15.7775 24.0267 14.7807 24.76 14.212C26.1486 13.1352 28.0709 12.1465 30.0253 11.5041C31.0072 11.1814 31.2539 11.03 31.4785 10.6135C31.792 10.0313 31.5901 9.31318 31.001 8.91447C30.5715 8.62406 30.0561 8.63874 29.0635 8.97003C25.511 10.1553 22.5385 12.0832 20.6971 14.3967C19.2781 16.1791 18.0208 19.2512 17.8978 21.236C17.8584 21.8701 17.8644 21.9106 18.0358 22.1927C18.3395 22.6921 18.7396 22.8961 19.3488 22.8627C19.6137 22.8481 19.7797 22.7931 19.9903 22.6503L19.9905 22.6502ZM14.8282 25.6277C14.4875 25.563 14.1745 25.3721 13.9294 25.0789L13.7194 24.8279L13.7239 23.613C13.729 22.2576 13.824 21.5355 14.1942 20.041C15.0665 16.5192 16.8953 13.4256 19.5826 10.9256C22.2919 8.40544 25.578 6.73489 29.1928 6.03953C29.9728 5.88957 30.1101 5.84554 30.0731 5.75775C29.9835 5.54534 29.9632 4.8597 30.0355 4.48097C30.2353 3.43385 31.1028 2.50161 32.1489 2.20975C32.6377 2.07331 33.3968 2.07331 33.8857 2.20975C34.9318 2.50189 35.7993 3.43385 35.9991 4.48097C36.0714 4.85974 36.051 5.54562 35.9615 5.75775C35.9244 5.84554 36.0618 5.88958 36.8418 6.03953C43.5543 7.33047 49.1307 12.064 51.3416 18.3469C51.992 20.1953 52.3055 21.8973 52.3118 23.6127L52.3163 24.8276L52.1075 25.0786C51.9926 25.2164 51.7644 25.4026 51.6005 25.4925L51.3024 25.6554L33.1867 25.6646C23.2226 25.6695 14.9617 25.6531 14.8279 25.6274L14.8282 25.6277ZM13.1485 30.6233C12.9845 30.5418 12.7602 30.3507 12.6444 30.1938C12.4452 29.9238 12.4344 29.8763 12.4112 29.1634C12.392 28.5832 12.4115 28.3532 12.4975 28.1359C12.6384 27.7802 13.0293 27.4011 13.342 27.3177C13.6761 27.2281 52.3599 27.2281 52.694 27.3177C53.0067 27.4014 53.3976 27.7802 53.5385 28.1359C53.6245 28.3532 53.6439 28.5832 53.6248 29.1634C53.6012 29.8764 53.5905 29.9241 53.3916 30.1938C53.2757 30.3507 53.0515 30.5421 52.8875 30.6233L52.5922 30.7698H13.4435L13.1485 30.6233Z" fill="#0084F4"/>
</svg>
