<svg width="24" height="25" viewBox="0 0 24 25" fill="none" xmlns="http://www.w3.org/2000/svg">
<path fill-rule="evenodd" clip-rule="evenodd" d="M22.0217 6.36128L18.4343 0.681484L17.3959 2.65729C15.2062 1.49421 12.701 1.06117 10.2461 1.42321C7.75345 1.79082 5.44772 2.9583 3.67611 4.74984C1.9045 6.54139 0.762917 8.86002 0.423252 11.3566C0.0835873 13.8532 0.564229 16.3926 1.7928 18.5924C3.02138 20.7923 4.93138 22.5334 7.23521 23.5538C9.53904 24.5741 12.112 24.8184 14.5666 24.2499C17.0212 23.6813 19.2247 22.3307 20.8452 20.4014C22.4656 18.4721 23.4154 16.0685 23.5515 13.5526L21.1209 13.421C21.0133 15.4101 20.2624 17.3105 18.9812 18.8358C17.7 20.3612 15.9579 21.429 14.0172 21.8786C12.0766 22.3281 10.0423 22.1349 8.22087 21.3282C6.39941 20.5215 4.88932 19.1449 3.91798 17.4056C2.94664 15.6664 2.56663 13.6587 2.83518 11.6848C3.10373 9.71098 4.00629 7.87782 5.40696 6.46138C6.80764 5.04495 8.6306 4.12191 10.6014 3.83127C12.5457 3.54452 14.5301 3.88865 16.2636 4.81197L15.3092 6.62794L22.0217 6.36128Z" fill="#0084F4"/>
</svg>
