<svg width="26" height="26" viewBox="0 0 26 26" fill="none" xmlns="http://www.w3.org/2000/svg">
<path d="M13.1143 25.1551C6.39672 25.1551 0.900391 19.5549 0.900391 12.7059C0.900391 5.85688 6.39672 0.256714 13.1143 0.256714C19.8319 0.256714 25.3282 5.81884 25.3282 12.7059C25.3282 19.5929 19.8319 25.1551 13.1143 25.1551ZM13.1143 1.58109C7.08368 1.58109 2.19812 6.57603 2.19812 12.7059C2.19812 18.8357 7.08368 23.8307 13.1143 23.8307C19.1449 23.8307 24.0305 18.8357 24.0305 12.7059C24.0305 6.57603 19.1449 1.58109 13.1143 1.58109Z" fill="#ECEEF2"/>
<path d="M14.7176 12.7056C14.7176 13.6043 13.9999 14.3325 13.1145 14.3325C12.2292 14.3325 11.5115 13.6043 11.5115 12.7056C11.5115 11.8068 12.2292 11.0786 13.1145 11.0786C13.9999 11.0786 14.7176 11.8068 14.7176 12.7056Z" fill="#ECEEF2"/>
<path d="M13.8392 3.09408C13.8392 3.49105 13.5144 3.81282 13.1139 3.81282C12.7135 3.81282 12.3887 3.49107 12.3887 3.09408C12.3887 2.69684 12.7135 2.37506 13.1139 2.37506C13.5144 2.37506 13.8392 2.69681 13.8392 3.09408Z" fill="#ECEEF2"/>
<path d="M23.2669 12.7057C23.2669 13.1027 22.9421 13.4247 22.5417 13.4247C22.1412 13.4247 21.8164 13.1027 21.8164 12.7057C21.8164 12.3087 22.1412 11.9867 22.5417 11.9867C22.9421 11.9867 23.2669 12.3087 23.2669 12.7057Z" fill="#ECEEF2"/>
<path d="M13.8392 22.317C13.8392 22.7143 13.5144 23.036 13.1139 23.036C12.7135 23.036 12.3887 22.7143 12.3887 22.317C12.3887 21.92 12.7135 21.5982 13.1139 21.5982C13.5144 21.5982 13.8392 21.92 13.8392 22.317Z" fill="#ECEEF2"/>
<path d="M4.41196 12.7057C4.41196 13.1027 4.08715 13.4247 3.68669 13.4247C3.28624 13.4247 2.96143 13.1027 2.96143 12.7057C2.96143 12.3087 3.28624 11.9867 3.68669 11.9867C4.08715 11.9867 4.41196 12.3087 4.41196 12.7057Z" fill="#ECEEF2"/>
<path d="M18.2289 13.4254H12.3892V5.63046H13.7252V12.2144H18.2289V13.4254Z" fill="#ECEEF2"/>
</svg>
